# xmcd CD database file
# Copyright (C) 1993-1998 Ti Kan
#
# Track frame offsets:
#  183
#  11483
#  22493
#  32990
#  42278
#  53980
#  70135
#  82073
#  89783
#  100403
#  110760
#  123178
#  137750
#  147995
#  160668
#  169713
#  181055
#  196765
#  210738
#  222583
#  235533
#  252285
#  261875
#  276375
#
# Disc length: 4101 seconds
#
# Revision: 1
# Processed by: cddbd v1.4b41PL1 Copyright (c) Steve Scherf et al.
# Submitted via: CDWizzard Release:4.60
#
DISCID=6a100318
DTITLE=Irma Thomas - Ruler Of Hearts
DYEAR=1900
DGENRE=
TTITLE0=I Did y Part
TTITLE1=Cry On
TTITLE2=For Goodnessake
TTITLE3=It's Raining
TTITLE4=Look Up [aka Whenever]
TTITLE5=It's Too Soon To Know
TTITLE6=Somebody Told You
TTITLE7=Your Love Is True
TTITLE8=Hittin' On Nothing [You Ain't]
TTITLE9=Gone
TTITLE10=Two Winters Long
TTITLE11=I Done Gone Got Over
TTITLE12=That's All I Ask
TTITLE13=Ruler Of My Heart
TTITLE14=Girl Needs Boy
TTITLE15=It's Too Soon To Know
TTITLE16=You Can Have My Husband
TTITLE17=Cry On
TTITLE18=I Won't Cry
TTITLE19=Ruler Of My Heart
TTITLE20=I Done Got Over
TTITLE21=It's Raining
TTITLE22=Hip Shakin' Mama
TTITLE23=Wish Someone Would Care
EXTD=
EXTT0=
EXTT1=
EXTT2=
EXTT3=
EXTT4=
EXTT5=
EXTT6=
EXTT7=
EXTT8=
EXTT9=
EXTT10=
EXTT11=
EXTT12=
EXTT13=
EXTT14=
EXTT15=
EXTT16=
EXTT17=
EXTT18=
EXTT19=
EXTT20=
EXTT21=
EXTT22=
EXTT23=
PLAYORDER=
